<?xml version="1.0" encoding="utf-8"?>
<!-- Designed by Vexels.com - 2016 All Rights Reserved - https://vexels.com/terms-and-conditions/  -->

<svg version="1.0" id="Capa_1" xmlns="http://www.w3.org/2000/svg" xmlns:xlink="http://www.w3.org/1999/xlink" x="0px" y="0px"
	 width="1200px" height="1200px" viewBox="0 0 1200 1200" enable-background="new 0 0 1200 1200" xml:space="preserve">
<g>
	<path d="M411.05,452.818c0.252,2.67,0.358,4.7,0.648,6.705c3.864,27.003,7.775,54,11.632,81.006
		c3.966,27.739,7.873,55.487,11.835,83.228c2.815,19.657,5.629,39.313,8.642,58.939c0.237,1.549,2.009,4.075,3.104,4.095
		c14.058,0.28,28.117,0.185,43.015,0.185c-3.7-81.003-7.376-161.363-11.072-242.318C455.766,447.437,433.705,450.092,411.05,452.818
		z"/>
	<path d="M299.949,466.159c0.402,1.821,0.57,2.719,0.791,3.603c9.973,39.738,19.938,79.478,29.927,119.212
		c7.864,31.281,15.727,62.561,23.726,93.807c0.402,1.567,2.092,3.985,3.225,4.006c13.884,0.276,27.778,0.181,42.752,0.181
		c-10.984-76.655-21.84-152.411-32.813-229.006C344.79,460.725,322.508,463.425,299.949,466.159z"/>
	<path d="M599.921,21.615c-318.909,0-578.305,259.397-578.305,578.307s259.396,578.462,578.305,578.462
		c319.065,0,578.464-259.553,578.464-578.462S918.985,21.615,599.921,21.615z M488.317,919.391
		c-5.85,15.698-17.295,24.982-33.556,28.545c-1.045,0.228-2.045,0.679-3.069,1.026c-2.971,0-5.946,0-8.92,0
		c-7.659-3.455-16.335-5.591-22.79-10.599c-23.013-17.86-21.368-52.422,2.57-69.154c14.789-10.334,36.394-9.913,50.596,0.986
		C488.552,882.013,494.798,901.996,488.317,919.391z M738.591,947.923c-1.247,0.233-2.449,0.689-3.67,1.04c-2.601,0-5.204,0-7.806,0
		c-9.177-2.334-17.933-5.144-25.396-11.659c-15.172-13.253-18.888-39.092-7.433-55.802c19.263-28.091,59.041-26.098,75.318,3.776
		C783.203,910.235,767.209,942.528,738.591,947.923z M949.018,277.69c-3.65,10.186-10.953,15.402-21.496,17.796
		c-21.164,4.809-42.129,10.478-63.186,15.746c-3.392,0.848-5.431,1.914-6.092,6.254c-7.037,46.428-14.447,92.8-21.764,139.185
		c-7.327,46.381-14.668,92.759-22.001,139.138c-6.002,37.95-12.012,75.899-17.998,113.851
		c-2.206,13.972-10.087,20.809-24.244,20.809c-132.668,0.014-265.329,0.007-397.997,0.007c-2.374,0-4.747,0-7.771,0
		c0.598,3.024,0.978,5.362,1.534,7.655c2.57,10.638,5.268,21.247,7.75,31.906c0.712,3.035,2.123,4.522,5.341,4.263
		c2.221-0.174,4.458-0.026,6.686-0.026c141.964,0.002,283.918,0,425.877,0.016c8.186,0,15.869,1.185,21.43,8.305
		c5.355,6.856,6.054,14.418,3.042,22.061c-2.914,7.408-8.92,11.721-16.945,12.766c-2.385,0.309-4.819,0.245-7.237,0.245
		c-149.39,0.014-298.778-0.117-448.166,0.173c-19.71,0.038-25.18-8.837-28.737-23.066c-7.648-30.592-15.179-61.213-22.802-91.811
		c-9.904-39.771-19.828-79.542-29.804-119.295c-10.699-42.642-21.467-85.268-32.231-127.894c-0.266-1.043-0.814-2.014-1.225-3.021
		c0-3.344,0-6.69,0-10.034c4.686-11.531,13.445-16.693,25.681-17.857c19.03-1.809,37.978-4.453,56.969-6.711
		c41.483-4.935,82.979-9.806,124.46-14.78c41.847-5.018,83.679-10.153,125.526-15.198c53.083-6.4,106.177-12.763,159.266-19.137
		c21.365-2.565,42.724-5.125,64.352-7.719c0.471-2.866,0.891-5.391,1.3-7.914c3.332-20.52,6.641-41.044,10.011-61.557
		c1.537-9.36,6.99-15.482,16.081-17.919c14.147-3.793,28.405-7.173,42.585-10.844c15.406-3.983,30.772-8.098,46.153-12.157
		c2.601,0,5.203,0,7.806,0c8.459,2.897,14.328,8.555,17.845,16.725C949.018,270.998,949.018,274.344,949.018,277.69z"/>
	<path d="M525.333,439.253c-1.164,0.152-2.86,3.043-2.822,4.627c0.221,9.83,0.92,19.648,1.366,29.473
		c2.769,61.022,5.51,122.043,8.272,183.067c0.449,9.972,0.943,19.938,1.43,30.186c15.321,0,30.231,0,45.635,0
		c3.651-85.045,7.284-169.713,10.901-254.02c-1.155-0.567-1.499-0.893-1.8-0.858C567.313,434.154,546.305,436.54,525.333,439.253z"
		/>
	<path d="M638.351,425.426c-4.481,0.497-4.633,2.947-4.776,6.417c-1.698,41.204-3.524,82.404-5.272,123.605
		c-1.788,42.132-3.524,84.264-5.258,126.396c-0.06,1.577,0.202,3.166,0.328,4.931c14.958,0,29.4,0,44.706,0
		c11.22-89.6,22.396-178.812,33.594-268.207c-1.629-0.202-2.358-0.439-3.05-0.356C678.533,420.628,658.457,423.189,638.351,425.426z
		"/>
	<path d="M751.165,411.796c-3.588,0.389-4.945,1.815-5.394,5.47c-4.579,37.024-9.424,74.018-14.065,111.037
		c-5.607,44.754-11.084,89.524-16.637,134.283c-0.973,7.871-2.03,15.736-3.146,24.365c14.245,0,27.763,0.081,41.265-0.173
		c0.974-0.017,2.563-2.384,2.762-3.812c4.617-33.466,9.113-66.95,13.563-100.438c5.182-39.007,10.286-78.025,15.45-117.036
		c2.534-19.107,5.135-38.204,7.79-57.964c-1.658-0.14-2.563-0.37-3.43-0.268C776.603,408.767,763.899,410.418,751.165,411.796z"/>
</g>
</svg>
